HIERARCHY
ROOT Hips
{
	OFFSET 0.000000 83.214638 0.000000
	CHANNELS 6 Xposition Yposition Zposition Xrotation Yrotation Zrotation
	JOINT Pelvis
	{
		OFFSET 0.000000 0.000000 0.000000
		CHANNELS 3 Xrotation Yrotation Zrotation
		JOINT LeftUpLeg
		{
			OFFSET 8.479700 -4.795502 -0.379100
			CHANNELS 3 Xrotation Yrotation Zrotation
			JOINT LeftLeg
			{
				OFFSET 0.024144 -32.555107 0.112900
				CHANNELS 3 Xrotation Yrotation Zrotation
				JOINT LeftFoot
				{
					OFFSET -0.024144 -32.638630 -3.012600
					CHANNELS 3 Xrotation Yrotation Zrotation
					JOINT LeftToeBase
					{
						OFFSET 0.970200 -13.225400 11.864200
						CHANNELS 3 Xrotation Yrotation Zrotation
						End Site
						{
							OFFSET 0.000000 12.319262 0.000000
						}
					}
					JOINT LFootTongue
					{
						OFFSET 1.142400 -1.059800 6.665200
						CHANNELS 3 Xrotation Yrotation Zrotation
						End Site
						{
							OFFSET 0.000000 12.319262 0.000000
						}
					}
				}
				JOINT LeftPantLeg
				{
					OFFSET 0.918482 -16.533964 -2.284700
					CHANNELS 3 Xrotation Yrotation Zrotation
					End Site
					{
						OFFSET 0.350399 24.744368 0.000000
					}
				}
			}
		}
		JOINT RightUpLeg
		{
			OFFSET -8.479700 -4.795502 -0.379100
			CHANNELS 3 Xrotation Yrotation Zrotation
			JOINT RightLeg
			{
				OFFSET -0.023144 -32.555092 0.112900
				CHANNELS 3 Xrotation Yrotation Zrotation
				JOINT RightFoot
				{
					OFFSET 0.023144 -32.638641 -3.012700
					CHANNELS 3 Xrotation Yrotation Zrotation
					JOINT RightToeBase
					{
						OFFSET -0.970200 -13.225400 11.864200
						CHANNELS 3 Xrotation Yrotation Zrotation
						End Site
						{
							OFFSET 0.000000 12.319244 0.000000
						}
					}
					JOINT RFootTongue
					{
						OFFSET -1.142200 -1.059800 6.665200
						CHANNELS 3 Xrotation Yrotation Zrotation
						End Site
						{
							OFFSET 0.000000 12.319243 0.000000
						}
					}
				}
				JOINT RightPantLeg
				{
					OFFSET -0.919482 -16.533978 -2.284800
					CHANNELS 3 Xrotation Yrotation Zrotation
					End Site
					{
						OFFSET -0.350400 24.744419 0.000000
					}
				}
			}
		}
	}
	JOINT Spine
	{
		OFFSET 0.000000 7.722000 1.166200
		CHANNELS 3 Xrotation Yrotation Zrotation
		JOINT Spine1
		{
			OFFSET 0.000000 12.024101 0.248800
			CHANNELS 3 Xrotation Yrotation Zrotation
			JOINT Spine2
			{
				OFFSET 0.000000 11.502998 -0.491200
				CHANNELS 3 Xrotation Yrotation Zrotation
				JOINT Neck
				{
					OFFSET 0.000000 18.430702 -3.123100
					CHANNELS 3 Xrotation Yrotation Zrotation
					JOINT Head
					{
						OFFSET 0.000000 9.051102 1.034000
						CHANNELS 3 Xrotation Yrotation Zrotation
						JOINT HairB
						{
							OFFSET 0.208400 24.786102 24.822300
							CHANNELS 3 Xrotation Yrotation Zrotation
							End Site
							{
								OFFSET 0.000000 32.263779 0.000000
							}
						}
						JOINT HairA
						{
							OFFSET -7.081100 24.428299 23.196600
							CHANNELS 3 Xrotation Yrotation Zrotation
							End Site
							{
								OFFSET 0.000000 32.263779 0.000000
							}
						}
						JOINT Hat
						{
							OFFSET 16.728800 15.048294 -15.439601
							CHANNELS 3 Xrotation Yrotation Zrotation
							End Site
							{
								OFFSET 0.000000 32.263779 0.000000
							}
						}
					}
				}
				JOINT LeftShoulder
				{
					OFFSET 6.197800 13.665199 -4.064700
					CHANNELS 3 Xrotation Yrotation Zrotation
					JOINT LeftArm
					{
						OFFSET 7.778100 -0.187103 -1.709300
						CHANNELS 3 Xrotation Yrotation Zrotation
						JOINT LeftForeArm
						{
							OFFSET 22.049376 0.000000 0.000000
							CHANNELS 3 Xrotation Yrotation Zrotation
							JOINT LeftHand
							{
								OFFSET 23.009392 0.000000 0.000000
								CHANNELS 3 Xrotation Yrotation Zrotation
								JOINT LeftHandThumb1
								{
									OFFSET 3.507191 -2.063065 3.133727
									CHANNELS 3 Xrotation Yrotation Zrotation
									JOINT LeftHandThumb2
									{
										OFFSET 3.101337 -1.790558 1.790558
										CHANNELS 3 Xrotation Yrotation Zrotation
										JOINT LeftHandThumb3
										{
											OFFSET 3.058640 -1.765907 1.765906
											CHANNELS 3 Xrotation Yrotation Zrotation
											End Site
											{
												OFFSET -0.415260 3.926476 -0.049563
											}
										}
									}
								}
								JOINT LeftHandIndex1
								{
									OFFSET 11.334419 -0.901459 3.706815
									CHANNELS 3 Xrotation Yrotation Zrotation
									JOINT LeftHandIndex2
									{
										OFFSET 3.283112 0.000000 0.000000
										CHANNELS 3 Xrotation Yrotation Zrotation
										JOINT LeftHandIndex3
										{
											OFFSET 3.323853 0.000000 0.000000
											CHANNELS 3 Xrotation Yrotation Zrotation
											End Site
											{
												OFFSET -1.135597 3.097809 0.402452
											}
										}
									}
								}
								JOINT LeftHandMiddle1
								{
									OFFSET 11.335861 0.000000 0.000000
									CHANNELS 3 Xrotation Yrotation Zrotation
									JOINT LeftHandMiddle2
									{
										OFFSET 3.410492 0.000000 0.000000
										CHANNELS 3 Xrotation Yrotation Zrotation
										JOINT LeftHandMiddle3
										{
											OFFSET 3.312172 0.000000 0.000000
											CHANNELS 3 Xrotation Yrotation Zrotation
											End Site
											{
												OFFSET -1.150200 3.080154 0.400270
											}
										}
									}
								}
								JOINT LeftHandRing1
								{
									OFFSET 11.514786 -0.013176 -3.003090
									CHANNELS 3 Xrotation Yrotation Zrotation
									JOINT LeftHandRing2
									{
										OFFSET 3.053307 0.000000 0.000000
										CHANNELS 3 Xrotation Yrotation Zrotation
										JOINT LeftHandRing3
										{
											OFFSET 3.295807 0.000000 0.000000
											CHANNELS 3 Xrotation Yrotation Zrotation
											End Site
											{
												OFFSET -1.281006 3.013344 0.375733
											}
										}
									}
								}
								JOINT LeftHandPinky1
								{
									OFFSET 10.518692 -0.960396 -5.730441
									CHANNELS 3 Xrotation Yrotation Zrotation
									JOINT LeftHandPinky2
									{
										OFFSET 2.861649 0.000000 0.000000
										CHANNELS 3 Xrotation Yrotation Zrotation
										JOINT LeftHandPinky3
										{
											OFFSET 2.863380 0.000000 0.000000
											CHANNELS 3 Xrotation Yrotation Zrotation
											End Site
											{
												OFFSET -0.843597 2.711159 0.369971
											}
										}
									}
								}
							}
							JOINT LSleeve
							{
								OFFSET 6.676277 -0.344902 -1.011730
								CHANNELS 3 Xrotation Yrotation Zrotation
								End Site
								{
									OFFSET 0.000000 14.885353 0.000000
								}
							}
						}
					}
				}
				JOINT RightShoulder
				{
					OFFSET -6.197800 13.665199 -4.064700
					CHANNELS 3 Xrotation Yrotation Zrotation
					JOINT RightArm
					{
						OFFSET -7.778100 -0.187103 -1.709300
						CHANNELS 3 Xrotation Yrotation Zrotation
						JOINT RightForeArm
						{
							OFFSET -22.049376 0.000000 0.000000
							CHANNELS 3 Xrotation Yrotation Zrotation
							JOINT RightHand
							{
								OFFSET -23.009392 0.000000 0.000000
								CHANNELS 3 Xrotation Yrotation Zrotation
								JOINT RightHandThumb1
								{
									OFFSET -3.507191 -2.063065 3.133727
									CHANNELS 3 Xrotation Yrotation Zrotation
									JOINT RightHandThumb2
									{
										OFFSET -3.101337 -1.790558 1.790558
										CHANNELS 3 Xrotation Yrotation Zrotation
										JOINT RightHandThumb3
										{
											OFFSET -3.058640 -1.765907 1.765906
											CHANNELS 3 Xrotation Yrotation Zrotation
											End Site
											{
												OFFSET 0.415260 3.926476 -0.049563
											}
										}
									}
								}
								JOINT RightHandIndex1
								{
									OFFSET -11.334419 -0.901459 3.706815
									CHANNELS 3 Xrotation Yrotation Zrotation
									JOINT RightHandIndex2
									{
										OFFSET -3.283112 0.000000 0.000000
										CHANNELS 3 Xrotation Yrotation Zrotation
										JOINT RightHandIndex3
										{
											OFFSET -3.323853 0.000000 0.000000
											CHANNELS 3 Xrotation Yrotation Zrotation
											End Site
											{
												OFFSET 1.135597 3.097809 0.402452
											}
										}
									}
								}
								JOINT RightHandMiddle1
								{
									OFFSET -11.335861 0.000000 0.000000
									CHANNELS 3 Xrotation Yrotation Zrotation
									JOINT RightHandMiddle2
									{
										OFFSET -3.410492 0.000000 0.000000
										CHANNELS 3 Xrotation Yrotation Zrotation
										JOINT RightHandMiddle3
										{
											OFFSET -3.312172 0.000000 0.000000
											CHANNELS 3 Xrotation Yrotation Zrotation
											End Site
											{
												OFFSET 1.150200 3.080154 0.400270
											}
										}
									}
								}
								JOINT RightHandRing1
								{
									OFFSET -11.514786 -0.013176 -3.003090
									CHANNELS 3 Xrotation Yrotation Zrotation
									JOINT RightHandRing2
									{
										OFFSET -3.053307 0.000000 0.000000
										CHANNELS 3 Xrotation Yrotation Zrotation
										JOINT RightHandRing3
										{
											OFFSET -3.295807 0.000000 0.000000
											CHANNELS 3 Xrotation Yrotation Zrotation
											End Site
											{
												OFFSET 1.281006 3.013344 0.375733
											}
										}
									}
								}
								JOINT RightHandPinky1
								{
									OFFSET -10.518692 -0.960396 -5.730441
									CHANNELS 3 Xrotation Yrotation Zrotation
									JOINT RightHandPinky2
									{
										OFFSET -2.861649 0.000000 0.000000
										CHANNELS 3 Xrotation Yrotation Zrotation
										JOINT RightHandPinky3
										{
											OFFSET -2.863380 0.000000 0.000000
											CHANNELS 3 Xrotation Yrotation Zrotation
											End Site
											{
												OFFSET 0.843597 2.711159 0.369971
											}
										}
									}
								}
							}
							JOINT RSleeve
							{
								OFFSET -6.676277 -0.344902 -1.011730
								CHANNELS 3 Xrotation Yrotation Zrotation
								End Site
								{
									OFFSET 0.000000 14.885353 0.000000
								}
							}
						}
					}
				}
				JOINT Backpack
				{
					OFFSET 0.000000 -2.471497 36.677502
					CHANNELS 3 Xrotation Yrotation Zrotation
					End Site
					{
						OFFSET 0.000000 20.427315 0.000000
					}
				}
				JOINT Hood
				{
					OFFSET 0.000000 18.754097 -10.431000
					CHANNELS 3 Xrotation Yrotation Zrotation
					JOINT Hood1
					{
						OFFSET 0.000000 -5.011002 -7.685901
						CHANNELS 3 Xrotation Yrotation Zrotation
						End Site
						{
							OFFSET 0.000000 9.175140 0.000000
						}
					}
				}
				JOINT LHoodieString
				{
					OFFSET 5.250500 16.397697 3.089900
					CHANNELS 3 Xrotation Yrotation Zrotation
					JOINT LHoodieString1
					{
						OFFSET 0.257700 -6.364304 3.694600
						CHANNELS 3 Xrotation Yrotation Zrotation
						JOINT LHoodieString2
						{
							OFFSET 0.000000 -9.643799 2.679100
							CHANNELS 3 Xrotation Yrotation Zrotation
							End Site
							{
								OFFSET 0.000000 10.009018 0.000000
							}
						}
					}
				}
				JOINT RHoodieString
				{
					OFFSET -5.250500 16.397697 3.089900
					CHANNELS 3 Xrotation Yrotation Zrotation
					JOINT RHoodieString1
					{
						OFFSET -0.257700 -6.364304 3.694600
						CHANNELS 3 Xrotation Yrotation Zrotation
						JOINT RHoodieString2
						{
							OFFSET 0.000000 -9.643799 2.679100
							CHANNELS 3 Xrotation Yrotation Zrotation
							End Site
							{
								OFFSET 0.000000 10.009018 0.000000
							}
						}
					}
				}
			}
			JOINT LBackpack_Strap
			{
				OFFSET 15.223200 -7.719803 -6.610900
				CHANNELS 3 Xrotation Yrotation Zrotation
				End Site
				{
					OFFSET 0.000000 16.040596 0.000000
				}
			}
			JOINT RBackpack_Strap
			{
				OFFSET -15.223000 -7.719803 -6.610900
				CHANNELS 3 Xrotation Yrotation Zrotation
				End Site
				{
					OFFSET 0.000000 16.040596 0.000000
				}
			}
		}
	}
	JOINT BoyFacialAnim_Joint
	{
		OFFSET 1.000000 -82.208099 -1.550900
		CHANNELS 3 Xrotation Yrotation Zrotation
		End Site
		{
			OFFSET 0.000000 30.012791 0.000000
		}
	}
}
MOTION
Frames: 4
Frame Time: 0.016667
-0.509375 81.033432 -3.653574 1.019611 3.205130 -0.506177 0.000000 -0.000000 0.000000 -14.324421 9.246579 6.189806 24.066849 -1.756697 1.911707 -11.040396 0.819519 -5.006801 -0.000000 -0.000000 0.000000 -0.000000 -0.000000 -0.000000 0.000001 -0.000001 -0.000000 -10.616683 -6.211717 -5.884627 23.601333 -9.099057 7.834761 -12.973617 -16.372115 -0.308224 0.000000 -0.000000 0.000000 0.000000 -0.000000 0.000000 0.000001 -0.000000 0.000000 19.038652 -0.910011 -1.234989 1.223057 -0.119062 0.413204 1.222979 -0.102590 0.414475 17.491925 0.957045 1.398484 10.813736 -0.678496 3.594866 0.000001 -0.000000 -0.000000 0.000001 -0.000000 -0.000000 0.000001 -0.000000 -0.000000 11.672662 -37.520603 -0.316569 11.271318 19.967069 -51.862945 -0.000007 -34.690811 -0.000013 2.574870 -0.956504 2.461526 -1.708920 11.916054 7.382940 4.613916 16.205064 1.361374 0.000002 0.000000 -0.000000 0.562431 2.730265 -23.275995 0.897612 3.404364 -29.533564 -0.000000 -0.000001 0.000001 0.723099 3.076868 -26.493850 0.834080 3.289893 -28.445296 -0.000002 -0.000002 -0.000000 0.759394 3.148819 -27.218866 1.519204 4.319080 -38.743029 -0.000001 -0.000001 -0.000001 2.755445 6.846992 -28.124386 1.536464 0.254088 -39.161060 -0.000002 -0.000000 -0.000004 0.000000 0.000001 0.000001 0.491475 -2.548974 6.180814 3.745287 20.212625 34.029471 -0.000011 9.536092 -0.000002 23.378781 19.150937 -10.871778 -1.994369 -12.184636 -7.943391 5.444750 -17.292029 -0.860477 0.000002 0.000001 -0.000002 0.461126 -2.494413 20.944384 1.026112 -3.640544 31.472248 -0.000002 -0.000001 0.000003 0.535716 -2.680977 22.596330 1.057787 -3.691701 31.967638 0.000001 -0.000001 -0.000000 0.433992 -2.422395 20.311912 1.427569 -4.225577 37.320051 0.000002 -0.000003 0.000004 0.161425 -1.492523 12.345119 1.468711 -4.278880 37.875011 0.000003 -0.000001 0.000000 0.000003 -0.000000 -0.000004 0.000001 -0.000000 0.000000 0.000001 -0.000000 0.000000 0.000001 -0.000000 0.000000 0.000001 -0.000000 0.000000 0.000001 -0.000000 0.000000 0.000002 -0.000000 0.000000 0.000001 -0.000000 0.000000 0.000001 -0.000000 0.000000 0.000002 -0.000000 0.000000 -0.000001 -0.000000 0.000000 -0.000001 -0.000000 0.000000 0.000000 -0.000000 0.000000 
-0.495815 81.048073 -3.582184 0.970261 3.175529 -0.506221 0.000000 -0.000000 0.000000 -14.147554 9.297868 6.198690 23.954993 -1.774899 1.886557 -11.058682 0.818824 -4.995001 0.000000 0.000000 -0.000000 0.000000 0.000000 0.000000 -0.000000 0.000001 -0.000000 -10.438604 -6.188944 -5.849641 23.463761 -9.116281 7.785088 -12.952811 -16.382024 -0.267431 0.000000 -0.000002 0.000000 0.000000 -0.000002 0.000000 0.000001 -0.000001 -0.000000 18.772271 -0.900475 -1.235738 1.229634 -0.117465 0.406142 1.229541 -0.101461 0.407324 17.464860 0.625444 1.445074 10.818754 -1.791894 4.166018 -0.000001 0.000000 -0.000000 -0.000001 0.000000 -0.000000 -0.000001 0.000000 -0.000000 11.432072 -37.413410 -0.403148 11.910125 20.221613 -52.024540 -0.000008 -34.586982 -0.000008 1.537127 -1.822068 2.928787 -1.708920 11.916056 7.382940 4.613917 16.205071 1.361378 -0.000005 -0.000002 -0.000002 0.543305 2.685397 -22.870957 0.876743 3.367330 -29.180218 -0.000003 0.000001 -0.000003 0.704653 3.039379 -26.123594 0.803729 3.233337 -27.911942 -0.000002 -0.000001 -0.000005 0.742646 3.115665 -26.858206 1.478254 4.267693 -38.196194 -0.000001 0.000001 -0.000004 2.720243 6.830879 -27.790645 1.481106 0.185219 -38.428704 -0.000003 -0.000001 0.000001 0.000004 0.000001 0.000002 0.477897 -2.717888 6.166505 4.034787 19.963357 34.183253 -0.000002 9.601052 -0.000010 23.696943 18.707314 -11.098289 -1.994094 -12.184464 -7.943365 5.444949 -17.291959 -0.860845 -0.000003 -0.000002 -0.000003 0.496374 -2.584486 21.739584 1.040605 -3.664104 31.699796 -0.000002 0.000000 0.000002 0.569963 -2.761707 23.317443 1.074163 -3.717783 32.221274 0.000004 0.000001 -0.000002 0.462910 -2.499006 20.985071 1.445567 -4.249030 37.563824 -0.000003 0.000000 0.000000 0.180812 -1.578363 13.067971 1.485671 -4.300535 38.101746 0.000001 -0.000000 0.000000 -0.000001 -0.000002 -0.000002 0.000002 -0.000000 0.000000 0.000002 -0.000000 0.000000 0.000002 -0.000000 0.000000 0.000002 -0.000000 0.000000 0.000002 -0.000000 0.000000 0.000002 -0.000000 0.000000 0.000002 -0.000000 0.000000 0.000002 -0.000000 0.000000 0.000002 -0.000000 0.000000 0.000001 -0.000000 0.000000 0.000001 -0.000000 0.000000 0.000000 -0.000000 0.000000 
-0.484840 81.058258 -3.519605 0.923113 3.158765 -0.494436 -0.000000 -0.000000 0.000000 -13.989995 9.335031 6.190178 23.862999 -1.786414 1.869242 -11.076785 0.818581 -4.987416 -0.000000 0.000000 0.000000 -0.000000 0.000000 0.000000 -0.000001 -0.000001 -0.000000 -10.291650 -6.183800 -5.842207 23.370840 -9.123257 7.751590 -12.950430 -16.381276 -0.233413 -0.000000 -0.000002 -0.000000 -0.000000 -0.000002 -0.000000 -0.000001 -0.000001 -0.000000 18.532183 -0.875327 -1.259136 1.234583 -0.113720 0.407004 1.234492 -0.097861 0.408095 17.433489 0.332751 1.495481 10.826388 -2.735814 4.630163 -0.000000 -0.000000 0.000000 -0.000000 -0.000000 0.000000 -0.000000 -0.000000 0.000000 11.198577 -37.286037 -0.490909 12.400877 20.323684 -52.234449 -0.000007 -34.431499 0.000001 0.428610 -2.925370 3.387633 -1.708920 11.916058 7.382942 4.613915 16.205068 1.361375 -0.000001 0.000002 -0.000001 0.526292 2.644766 -22.505159 0.860865 3.338771 -28.908663 -0.000001 -0.000002 -0.000002 0.692326 3.014048 -25.875625 0.783532 3.194961 -27.551684 -0.000007 -0.000002 -0.000002 0.738388 3.107118 -26.747612 1.455594 4.238803 -37.890481 0.000004 0.000004 0.000000 2.724816 6.836781 -27.806701 1.456353 0.153841 -38.097477 -0.000000 0.000001 0.000002 -0.000002 0.000002 0.000001 0.469255 -2.842996 6.172177 4.088860 19.748917 34.584803 0.000004 9.610798 -0.000011 24.143320 18.313598 -11.302992 -1.993839 -12.184328 -7.943338 5.445109 -17.291927 -0.861174 -0.000003 -0.000001 0.000000 0.529388 -2.665752 22.460824 1.057847 -3.691796 31.968526 0.000001 0.000001 0.000000 0.608127 -2.848559 24.097537 1.098617 -3.756187 32.596309 -0.000000 0.000001 -0.000003 0.504149 -2.603902 21.911616 1.480776 -4.294313 38.036518 0.000000 0.000000 0.000001 0.215096 -1.719468 14.260245 1.529382 -4.355528 38.680840 -0.000000 -0.000002 -0.000000 0.000002 0.000001 -0.000001 0.000001 -0.000000 -0.000000 0.000001 -0.000000 -0.000000 0.000001 -0.000000 -0.000000 0.000001 -0.000000 -0.000000 0.000001 -0.000000 -0.000000 -0.000002 -0.000000 -0.000000 0.000001 -0.000000 -0.000000 0.000001 -0.000000 -0.000000 -0.000002 -0.000000 -0.000000 -0.000001 0.000000 0.000000 -0.000001 0.000000 0.000000 -0.000000 -0.000000 0.000000 
-0.476084 81.063805 -3.465443 0.877001 3.162337 -0.471255 0.000000 0.000000 -0.000000 -13.852526 9.356452 6.163226 23.792882 -1.797137 1.862011 -11.095090 0.818811 -4.983560 0.000000 0.000000 0.000000 0.000000 0.000000 0.000000 -0.000000 0.000001 0.000000 -10.174212 -6.194262 -5.860134 23.324116 -9.119914 7.732030 -12.968258 -16.379183 -0.204817 0.000000 -0.000002 0.000000 0.000000 -0.000002 0.000000 -0.000000 -0.000000 0.000000 18.318470 -0.838344 -1.300943 1.237618 -0.108356 0.414652 1.237492 -0.092383 0.415662 17.402058 0.082499 1.541182 10.840828 -3.516359 4.995898 -0.000004 -0.000000 -0.000000 -0.000004 -0.000000 -0.000000 -0.000004 -0.000000 -0.000000 10.974284 -37.134185 -0.580668 12.738216 20.288158 -52.482484 -0.000014 -34.226778 -0.000002 -0.546865 -4.175025 3.785996 -1.708919 11.916053 7.382943 4.613918 16.205068 1.361373 -0.000004 -0.000000 0.000001 0.510252 2.605771 -22.155189 0.848800 3.316865 -28.700755 -0.000002 -0.000001 -0.000002 0.684163 2.997146 -25.712954 0.771534 3.171916 -27.335839 -0.000001 -0.000002 0.000002 0.743603 3.117380 -26.827861 1.447900 4.228941 -37.786280 0.000003 0.000000 -0.000002 2.760627 6.859880 -28.095823 1.456528 0.154057 -38.099758 -0.000001 0.000001 -0.000000 0.000004 0.000001 -0.000002 0.465135 -2.927775 6.199371 3.910891 19.563082 35.227466 0.000000 9.562523 -0.000015 24.620419 18.025291 -11.454600 -1.993611 -12.184210 -7.943314 5.445232 -17.291884 -0.861487 -0.000005 0.000001 -0.000002 0.551007 -2.717418 22.921254 1.069497 -3.710366 32.149127 -0.000004 -0.000001 0.000002 0.641202 -2.921325 24.754930 1.120469 -3.790047 32.928250 -0.000001 0.000000 -0.000002 0.549801 -2.714572 22.895761 1.520027 -4.343842 38.557541 -0.000001 0.000000 0.000000 0.260319 -1.888409 15.696787 1.584923 -4.423837 39.406643 -0.000001 0.000001 0.000000 0.000001 -0.000001 -0.000001 0.000000 0.000000 0.000000 0.000000 0.000000 0.000000 0.000000 0.000000 0.000000 0.000000 0.000000 0.000000 0.000000 0.000000 0.000000 0.000000 -0.000000 -0.000000 0.000000 0.000000 0.000000 0.000000 0.000000 0.000000 0.000000 -0.000000 -0.000000 0.000001 0.000000 0.000000 0.000001 0.000000 0.000000 0.000000 0.000000 -0.000000 
